<svg width="555" height="169" viewBox="0 0 555 169" fill="none" xmlns="http://www.w3.org/2000/svg">
<path d="M31.2 115.4L22.8 129.1V136.5L17.5 148.1C17.5 148.1 21.7 150.2 24.3 149.9C26.9 149.5 18.5 159.4 19.2 162.9C19.9 166.4 16.7 167.1 32.9 167.1C49.1 167.1 248.9 166.7 260.1 167.8C271.3 168.9 472.2 166.7 481 166.7C489.8 166.7 528.7 167.4 531.5 164.2C534.3 161 530.8 152.3 531.5 150.2C532.2 148.1 535 150.9 537.5 148.1C540 145.3 535.7 133 535.7 133C535.7 133 535.7 131.2 535.7 130.2C535.7 129.1 535 127.4 534.6 126.3C534.2 125.2 532.8 123.5 532.8 123.5C532.8 123.5 532.1 120.3 532.1 119.3C532.1 118.2 531 115.4 531 115.4C531 115.4 66 102.8 33.8 115.4H31.2Z" fill="white"/>
<path d="M285.9 4.70002C289.6 4.70002 293.3 5.20003 296.9 4.60003C298.6 4.30003 300 3.40002 300.9 5.20002C302.2 7.80002 303.7 3.80002 304.9 5.40002C309.6 5.60002 314.2 4.20002 319 4.50002C322.3 3.70002 325.9 3.60002 329.1 4.00002C333.7 4.40002 337.6 3.70002 341.5 1.70002C343.6 4.20002 345.9 4.30003 348.7 2.60003C352.4 0.200031 352.6 4.50002 354.4 5.90002C356.6 5.80002 353.5 -2.79997 359.3 2.80003C360.2 4.80003 360.7 3.20003 361.3 2.60003C361.8 1.90003 362.1 2.10003 362.3 2.80003C363 4.10003 364.4 4.20003 365.5 4.80003C365.7 5.10003 365.9 5.30003 366.2 5.30003C365.7 5.10003 365.3 4.60003 364.9 4.30003C365.2 0.200028 368.6 3.50003 370.1 2.10003C371.8 1.60003 373.5 1.20003 375.2 0.600031C385 0.300031 394.7 2.20002 404.6 1.50002C410 1.10002 416.1 1.10002 421.6 2.50002C424.5 3.20002 427.1 0.700031 429.7 2.60003C432.1 2.30003 434.5 2.00002 437 1.70002C438.9 1.50002 440.4 2.10002 441.7 3.40002C444.8 3.00002 448 4.50003 451 3.10003C452.9 1.20003 455.9 3.70003 457.6 1.30003C466.6 1.40003 475.6 1.80002 484.5 2.70002C488.3 3.10002 492.3 3.60002 496.2 3.00002C503.2 3.50002 510.3 2.90002 517.3 3.50002C523.7 4.00002 529.9 5.80003 536.4 5.60003C537.7 5.60003 539 6.20002 539.7 7.40002C543.9 13.8 543 20.9 542.4 27.9C541.9 33.9 542.7 39.8 542.5 45.8C542.5 47.4 543.4 49.2 544.8 49.2C552.4 49.6 551.7 56.1 553.6 60.8C553.9 61.5 553.7 62.4 554.6 62.8C554.6 63.5 554.6 64.1 554.6 64.8C553 67.2 553.7 69.9 553.6 72.5C553.5 78.2 553.7 83.9 554.6 89.6C554.6 90.9 554.6 92.2 554.6 93.6C551.8 93.5 551 95.4 551.6 97.4C553.9 105 551.2 112.6 551.5 120.2C550.6 123.9 551 127.7 551.2 131.4C551.3 134.4 550.2 136.1 547.7 137.1C543.7 138.7 539.8 140.4 535.6 141.2C534.3 141.5 532.3 142.7 531.7 140C530.4 136.1 529.1 132.3 527.7 128.4C527.1 126.8 525.5 127.2 524.3 126.9C514.9 124.6 505.3 125 495.7 125.2C480 125.5 464.3 125.2 448.5 125.1C430.5 125 412.5 125.5 394.5 125C377.8 124.6 361.1 124.7 344.4 124.6C324.1 124.5 303.7 125.5 283.3 124.9C262.5 124.3 241.7 124 220.8 123.6C208.3 123.3 195.8 124.2 183.2 124C154.5 123.7 125.8 123.3 97.2 124.5C87 124.9 76.8 126.4 66.5 126.5C57.5 126.5 48.5 126 39.4 126.8C33 127.3 28 128.8 25.7 135.5C25.3 136.8 24 137.9 23.1 139.1C19.3 141.6 16 138 12.5 138C9.20001 137.7 6.7 136 4.2 134C4.3 124.9 2.3 116 2.2 107C2 95 0.40001 83.1 0.80001 71.1C1.00001 65.7 0.100004 60.5 2.2 55.2C2.9 53.3 3.70001 52 5.90001 52C9.40001 52.1 10 49.8 9.90001 47.1C9.60001 39.6 9.40001 32.1 9.00001 24.5C8.90001 21.7 8.80001 19 9.50001 16.2C10.6 12.1 12.6 10 17.4 10C25.1 10 32.6 7.90002 40.4 7.70002C44.1 7.60002 47.9 8.40002 51.6 7.40002C57.2 7.70002 62.8 6.50002 68.3 5.90002C72.9 5.40002 77.4 5.20002 81.9 6.00002C88.1 6.00002 94.1 9.20002 100.2 7.40002C105.1 6.00002 110.1 7.30003 114.9 6.10003C117.2 5.20003 119.8 7.60002 121.9 5.40002C129.6 4.80002 137.3 4.40003 145 5.30003C145.3 5.00003 145.5 4.80002 145.8 4.50002C148.6 1.60002 152.4 3.80003 155.6 3.30003C158.9 2.80003 162.9 2.40002 166.5 3.50002C168.5 4.40002 170.5 2.00002 172.5 3.50002C172.5 3.80002 172.5 4.10002 172.5 4.40002C177.4 4.90002 182.3 4.90002 187.3 4.50002C195.2 4.90002 203.1 5.30003 211 5.10003C217.6 5.00003 224.2 4.90003 230.8 6.10003C234.2 6.70003 238.1 5.40002 241.7 5.00002C242.9 4.90002 244 4.90002 245 5.50002C249.8 4.00002 254.9 5.30002 259.8 4.50002C266.3 4.90002 273 3.00002 279.5 5.20002C280.7 5.60002 281.8 5.50003 282.7 4.60003C284 3.90003 285 3.70002 285.9 4.70002Z" fill="#81C1BB"/>
</svg>
