<svg width="118" height="88" viewBox="0 0 118 88" fill="none" xmlns="http://www.w3.org/2000/svg">
<path d="M111.763 49.4295H4.48126C1.97176 49.4295 0 46.848 0 43.5624C0 40.2768 1.97176 37.6953 4.48126 37.6953H111.763C114.272 37.6953 116.244 40.2768 116.244 43.5624C116.244 46.848 114.272 49.4295 111.763 49.4295Z" fill="white"/>
<path d="M80.7525 87.0965C79.4978 87.0965 78.243 86.3924 77.3468 85.1016C75.7335 82.6375 75.9128 78.9999 77.7949 76.7703L106.654 43.5625L77.7949 10.3546C75.9128 8.24244 75.7335 4.48749 77.3468 2.0233C78.96 -0.44089 81.828 -0.675575 83.7102 1.43659L116.423 38.9861C117.409 40.0422 117.947 41.685 117.947 43.4451C117.947 45.2053 117.409 46.7307 116.423 47.9041L83.7102 85.571C82.9035 86.5098 81.828 86.9791 80.7525 86.9791V87.0965Z" fill="white"/>
</svg>
