<svg width="555" height="142" viewBox="0 0 555 142" fill="none" xmlns="http://www.w3.org/2000/svg">
<path d="M31.2 85.4L22.8 99.1V106.5L17.5 118.1C17.5 118.1 21.7 120.2 24.3 119.9C26.9 119.5 18.5 129.4 19.2 132.9C19.9 136.4 16.7 137.1 32.9 137.1C49.1 137.1 248.9 136.7 260.1 137.8C271.3 138.9 472.2 136.7 481 136.7C489.8 136.7 528.7 137.4 531.5 134.2C534.3 131 530.8 122.3 531.5 120.2C532.2 118.1 535 120.9 537.5 118.1C540 115.3 535.7 103 535.7 103C535.7 103 535.7 101.2 535.7 100.2C535.7 99.1 535 97.4 534.6 96.3C534.2 95.2 532.8 93.5 532.8 93.5C532.8 93.5 532.1 90.3 532.1 89.3C532.1 88.2 531 85.4 531 85.4C531 85.4 66 72.8 33.8 85.4H31.2Z" fill="white"/>
<path d="M285.9 4.69999C289.6 4.69999 293.3 5.2 296.9 4.6C298.6 4.3 300 3.39999 300.9 5.19999C302.2 7.79999 303.7 3.79999 304.9 5.39999C309.6 5.59999 314.2 4.19999 319 4.49999C322.3 3.69999 325.9 3.59999 329.1 3.99999C333.7 4.39999 337.6 3.69999 341.5 1.69999C343.6 4.19999 345.9 4.3 348.7 2.6C352.4 0.2 352.6 4.49999 354.4 5.89999C356.6 5.79999 353.5 -2.8 359.3 2.8C360.2 4.8 360.7 3.2 361.3 2.6C361.8 1.9 362.1 2.1 362.3 2.8C363 4.1 364.4 4.2 365.5 4.8C365.7 5.1 365.9 5.3 366.2 5.3C365.7 5.1 365.3 4.6 364.9 4.3C365.2 0.199997 368.6 3.5 370.1 2.1C371.8 1.6 373.5 1.2 375.2 0.6C385 0.3 394.7 2.19999 404.6 1.49999C410 1.09999 416.1 1.09999 421.6 2.49999C424.5 3.19999 427.1 0.7 429.7 2.6C432.1 2.3 434.5 1.99999 437 1.69999C438.9 1.49999 440.4 2.09999 441.7 3.39999C444.8 2.99999 448 4.5 451 3.1C452.9 1.2 455.9 3.7 457.6 1.3C466.6 1.4 475.6 1.79999 484.5 2.69999C488.3 3.09999 492.3 3.59999 496.2 2.99999C503.2 3.49999 510.3 2.89999 517.3 3.49999C523.7 3.99999 529.9 5.8 536.4 5.6C537.7 5.6 539 6.19999 539.7 7.39999C543.9 13.8 543 20.9 542.4 27.9C541.9 33.9 542.7 39.8 542.5 45.8C542.5 47.4 543.4 49.2 544.8 49.2C552.4 49.6 551.7 56.1 553.6 60.8C553.9 61.5 553.7 62.4 554.6 62.8C554.6 63.5 554.6 64.1 554.6 64.8C553 67.2 553.7 69.9 553.6 72.5C553.5 78.2 553.7 83.9 554.6 89.6C554.6 90.9 554.6 92.2 554.6 93.6C551.8 93.5 551 95.4 551.6 97.4C553.9 105 551.2 112.6 551.5 120.2C550.6 123.9 551 127.7 551.2 131.4C551.3 134.4 550.2 136.1 547.7 137.1C543.7 138.7 539.8 140.4 535.6 141.2C534.3 141.5 532.3 142.7 531.7 140C530.4 136.1 529.1 132.3 527.7 128.4C527.1 126.8 525.5 127.2 524.3 126.9C514.9 124.6 505.3 125 495.7 125.2C480 125.5 464.3 125.2 448.5 125.1C430.5 125 412.5 125.5 394.5 125C377.8 124.6 361.1 124.7 344.4 124.6C324.1 124.5 303.7 125.5 283.3 124.9C262.5 124.3 241.7 124 220.8 123.6C208.3 123.3 195.8 124.2 183.2 124C154.5 123.7 125.8 123.3 97.2 124.5C87 124.9 76.8 126.4 66.5 126.5C57.5 126.5 48.5 126 39.4 126.8C33 127.3 28 128.8 25.7 135.5C25.3 136.8 24 137.9 23.1 139.1C19.3 141.6 16 138 12.5 138C9.20001 137.7 6.7 136 4.2 134C4.3 124.9 2.3 116 2.2 107C2 95 0.40001 83.1 0.80001 71.1C1.00001 65.7 0.100004 60.5 2.2 55.2C2.9 53.3 3.70001 52 5.90001 52C9.40001 52.1 10 49.8 9.90001 47.1C9.60001 39.6 9.40001 32.1 9.00001 24.5C8.90001 21.7 8.80001 19 9.50001 16.2C10.6 12.1 12.6 9.99999 17.4 9.99999C25.1 9.99999 32.6 7.89999 40.4 7.69999C44.1 7.59999 47.9 8.39999 51.6 7.39999C57.2 7.69999 62.8 6.49999 68.3 5.89999C72.9 5.39999 77.4 5.19999 81.9 5.99999C88.1 5.99999 94.1 9.19999 100.2 7.39999C105.1 5.99999 110.1 7.3 114.9 6.1C117.2 5.2 119.8 7.59999 121.9 5.39999C129.6 4.79999 137.3 4.4 145 5.3C145.3 5 145.5 4.79999 145.8 4.49999C148.6 1.59999 152.4 3.8 155.6 3.3C158.9 2.8 162.9 2.39999 166.5 3.49999C168.5 4.39999 170.5 1.99999 172.5 3.49999C172.5 3.79999 172.5 4.09999 172.5 4.39999C177.4 4.89999 182.3 4.89999 187.3 4.49999C195.2 4.89999 203.1 5.3 211 5.1C217.6 5 224.2 4.9 230.8 6.1C234.2 6.7 238.1 5.39999 241.7 4.99999C242.9 4.89999 244 4.89999 245 5.49999C249.8 3.99999 254.9 5.29999 259.8 4.49999C266.3 4.89999 273 2.99999 279.5 5.19999C280.7 5.59999 281.8 5.5 282.7 4.6C284 3.9 285 3.69999 285.9 4.69999Z" fill="#81C1BB"/>
</svg>
