<svg width="872" height="793" viewBox="0 0 872 793" fill="none" xmlns="http://www.w3.org/2000/svg">
<path d="M284.036 198.956C248.641 217.827 208.441 225.412 170.736 239.102C83.2204 270.83 4.29898 346.959 0.972087 440.108C-0.136879 472.391 7.71829 504.489 20.2866 534.182C65.1997 640.652 166.578 714.191 273.87 756.742C328.579 778.387 386.707 793.65 445.482 791.985C501.947 790.412 557.026 773.3 609.147 751.377C652.951 732.969 695.462 710.768 732.704 681.26C860.513 579.693 907.089 389.14 843.601 238.639C786.489 103.032 527.546 -105.282 402.787 62.8861C365.36 113.3 342.256 167.876 283.943 198.956H284.036Z" fill="url(#paint0_linear_32_1024)"/>
<path d="M129.615 388.805V403H82.015V343.5H128.425V357.61H98.59V366.11H126.725V379.795H98.59V388.805H129.615ZM184.089 349.365L175.759 359.99C171.679 356.93 167.004 355.91 161.819 355.91C157.739 355.91 153.744 357.185 153.744 360.33C153.744 364.41 157.739 365.005 163.604 365.6C175.419 366.875 187.744 371.635 187.744 385.32C187.744 398.835 174.994 404.615 161.649 404.7C150.939 404.785 143.289 402.915 135.044 394.245L144.309 383.62C150.174 389.315 156.719 390.335 161.734 390.335C167.259 390.335 171.084 388.38 171.084 385.065C171.084 382.09 167.684 380.22 161.139 379.625C148.134 378.435 136.914 375.12 136.914 360.33C136.914 347.75 149.239 342.31 161.819 342.31C170.744 342.31 177.714 344.35 184.089 349.365ZM207.735 403V357.355H190.395V343.5H241.905V357.355H224.48V403H207.735ZM288.679 403L284.769 393.225H258.164L254.254 403H236.404L263.094 343.5H280.094L306.699 403H288.679ZM279.074 379.115L271.509 360.16L263.859 379.115H279.074ZM365.535 343.5L340.8 403.255H324.395L299.66 343.5H318.275L325.075 361.35L332.555 383.365L340.12 361.35L346.92 343.5H365.535ZM410.784 403L406.874 393.225H380.269L376.359 403H358.509L385.199 343.5H402.199L428.804 403H410.784ZM401.179 379.115L393.614 360.16L385.964 379.115H401.179ZM478.103 349.365L469.773 359.99C465.693 356.93 461.018 355.91 455.833 355.91C451.753 355.91 447.758 357.185 447.758 360.33C447.758 364.41 451.753 365.005 457.618 365.6C469.433 366.875 481.758 371.635 481.758 385.32C481.758 398.835 469.008 404.615 455.663 404.7C444.953 404.785 437.303 402.915 429.058 394.245L438.323 383.62C444.188 389.315 450.733 390.335 455.748 390.335C461.273 390.335 465.098 388.38 465.098 385.065C465.098 382.09 461.698 380.22 455.153 379.625C442.148 378.435 430.928 375.12 430.928 360.33C430.928 347.75 443.253 342.31 455.833 342.31C464.758 342.31 471.728 344.35 478.103 349.365ZM571.482 373.165C571.482 379.88 569.612 385.915 566.467 390.845L573.182 397.73L561.962 408.78L554.482 401.13C549.807 403.34 544.537 404.36 538.587 404.36C519.122 404.36 505.692 392.715 505.692 373.165C505.692 353.615 519.122 342.055 538.587 342.055C558.137 342.055 571.482 353.615 571.482 373.165ZM554.652 373.165C554.652 363.305 548.447 356.335 538.587 356.335C529.067 356.335 522.352 363.305 522.352 373.165C522.352 383.535 529.067 389.995 538.587 389.995C548.447 389.995 554.652 383.705 554.652 373.165ZM618.816 343.585H635.561V376.82C635.646 394.415 624.936 404.275 607.511 404.275C590.086 404.275 579.461 394.84 579.461 376.65V343.585H596.206V376.65C596.206 386 600.711 389.91 607.511 389.91C614.311 389.91 618.816 385.83 618.816 376.82V343.585ZM689.773 403L685.863 393.225H659.258L655.348 403H637.498L664.188 343.5H681.188L707.793 403H689.773ZM680.168 379.115L672.603 360.16L664.953 379.115H680.168ZM757.092 349.365L748.762 359.99C744.682 356.93 740.007 355.91 734.822 355.91C730.742 355.91 726.747 357.185 726.747 360.33C726.747 364.41 730.742 365.005 736.607 365.6C748.422 366.875 760.747 371.635 760.747 385.32C760.747 398.835 747.997 404.615 734.652 404.7C723.942 404.785 716.292 402.915 708.047 394.245L717.312 383.62C723.177 389.315 729.722 390.335 734.737 390.335C740.262 390.335 744.087 388.38 744.087 385.065C744.087 382.09 740.687 380.22 734.142 379.625C721.137 378.435 709.917 375.12 709.917 360.33C709.917 347.75 722.242 342.31 734.822 342.31C743.747 342.31 750.717 344.35 757.092 349.365ZM816.339 388.805V403H768.739V343.5H815.149V357.61H785.314V366.11H813.449V379.795H785.314V388.805H816.339ZM839.363 397.815C839.363 400.62 837.748 405.38 834.433 412.18H826.273L828.058 403.425C824.403 402.745 823.553 400.195 823.553 397.73C823.553 393.225 827.548 390.845 831.798 390.845C835.708 390.845 839.363 393.14 839.363 397.815ZM205.285 488V452.555L190.07 470.575H187.095L172.22 452.64V488H155.56V428.5H173.155L188.795 448.645L204.435 428.5H221.945V488H205.285ZM278.967 488L275.057 478.225H248.452L244.542 488H226.692L253.382 428.5H270.382L296.987 488H278.967ZM269.362 464.115L261.797 445.16L254.147 464.115H269.362ZM346.287 434.365L337.957 444.99C333.877 441.93 329.202 440.91 324.017 440.91C319.937 440.91 315.942 442.185 315.942 445.33C315.942 449.41 319.937 450.005 325.802 450.6C337.617 451.875 349.942 456.635 349.942 470.32C349.942 483.835 337.192 489.615 323.847 489.7C313.137 489.785 305.487 487.915 297.242 479.245L306.507 468.62C312.372 474.315 318.917 475.335 323.932 475.335C329.457 475.335 333.282 473.38 333.282 470.065C333.282 467.09 329.882 465.22 323.337 464.625C310.332 463.435 299.112 460.12 299.112 445.33C299.112 432.75 311.437 427.31 324.017 427.31C332.942 427.31 339.912 429.35 346.287 434.365ZM391.471 428.5L416.631 461.055C416.206 453.915 416.206 451.195 416.121 448.9V428.5H433.036V488H418.756L393.936 455.955L394.191 468.96V488H377.191V428.5H391.471ZM490.056 488L486.146 478.225H459.541L455.631 488H437.781L464.471 428.5H481.471L508.076 488H490.056ZM480.451 464.115L472.886 445.16L465.236 464.115H480.451ZM472.291 422.465C468.551 420.425 465.066 420 463.366 423.655L454.781 418.215C457.671 410.395 466.426 408.355 473.056 411.925C476.796 413.965 479.856 414.305 482.151 410.48L490.396 415.835C487.421 423.57 480.451 426.545 472.291 422.465ZM573.648 458.25C573.648 478.14 560.133 489.445 540.583 489.445C521.118 489.445 507.518 478.14 507.518 458.25C507.518 438.7 521.118 427.055 540.583 427.055C560.133 427.055 573.648 438.445 573.648 458.25ZM556.818 458.25C556.818 448.05 550.443 441.42 540.583 441.42C530.978 441.42 524.348 448.39 524.348 458.25C524.348 468.195 531.063 475.08 540.583 475.08C550.443 475.08 556.818 468.11 556.818 458.25ZM618.304 488H601.644V428.5H647.289V442.61H618.304V453.745H645.504V467.515H618.304V488ZM718.912 458.25C718.912 478.14 705.397 489.445 685.847 489.445C666.382 489.445 652.782 478.14 652.782 458.25C652.782 438.7 666.382 427.055 685.847 427.055C705.397 427.055 718.912 438.445 718.912 458.25ZM702.082 458.25C702.082 448.05 695.707 441.42 685.847 441.42C676.242 441.42 669.612 448.39 669.612 458.25C669.612 468.195 676.327 475.08 685.847 475.08C695.707 475.08 702.082 468.11 702.082 458.25ZM744.395 488H727.65V428.5H744.395V488ZM296.466 513.5H321.966C342.961 513.5 353.076 526.42 353.076 542.825C353.076 559.23 343.301 573 321.966 573H296.466V513.5ZM313.126 527.525V558.805H321.966C332.676 558.805 336.416 550.815 336.416 542.655C336.416 534.495 332.251 527.525 321.966 527.525H313.126ZM409.642 558.805V573H362.042V513.5H408.452V527.61H378.617V536.11H406.752V549.795H378.617V558.805H409.642ZM464.116 519.365L455.786 529.99C451.706 526.93 447.031 525.91 441.846 525.91C437.766 525.91 433.771 527.185 433.771 530.33C433.771 534.41 437.766 535.005 443.631 535.6C455.446 536.875 467.771 541.635 467.771 555.32C467.771 568.835 455.021 574.615 441.676 574.7C430.966 574.785 423.316 572.915 415.071 564.245L424.336 553.62C430.201 559.315 436.746 560.335 441.761 560.335C447.286 560.335 451.111 558.38 451.111 555.065C451.111 552.09 447.711 550.22 441.166 549.625C428.161 548.435 416.941 545.12 416.941 530.33C416.941 517.75 429.266 512.31 441.846 512.31C450.771 512.31 457.741 514.35 464.116 519.365ZM487.761 573V527.355H470.421V513.5H521.931V527.355H504.506V573H487.761ZM568.706 573L564.796 563.225H538.191L534.281 573H516.431L543.121 513.5H560.121L586.726 573H568.706ZM559.101 549.115L551.536 530.16L543.886 549.115H559.101ZM597.425 573.68C586.29 573.68 586.12 558.295 597.425 558.295C608.815 558.295 608.73 573.68 597.425 573.68Z" fill="white"/>
<defs>
<linearGradient id="paint0_linear_32_1024" x1="7.62586" y1="649.255" x2="733.353" y2="284.427" gradientUnits="userSpaceOnUse">
<stop stop-color="#D40082"/>
<stop offset="1" stop-color="#BF00B0"/>
</linearGradient>
</defs>
</svg>
