<svg width="872" height="793" viewBox="0 0 872 793" fill="none" xmlns="http://www.w3.org/2000/svg">
<path d="M284.064 198.956C248.669 217.827 208.469 225.412 170.765 239.102C83.2487 270.83 4.3273 346.959 1.00041 440.108C-0.108558 472.391 7.74661 504.489 20.3149 534.182C65.228 640.652 166.606 714.191 273.898 756.742C328.607 778.387 386.736 793.65 445.511 791.985C501.976 790.412 557.054 773.3 609.176 751.377C652.98 732.969 695.49 710.768 732.733 681.26C860.541 579.693 907.118 389.14 843.629 238.639C786.518 103.032 527.574 -105.282 402.816 62.8861C365.388 113.3 342.285 167.876 283.971 198.956H284.064Z" fill="url(#paint0_linear_29_998)"/>
<path d="M209.798 318.95V333.74H221.868C226.543 333.74 228.923 330.34 228.923 326.43C228.923 322.52 226.458 318.95 221.868 318.95H209.798ZM221.868 347.935H209.798V364H192.968V304.5H221.868C237.848 304.5 245.753 314.53 245.753 326.175C245.753 338.33 237.763 347.765 221.868 347.935ZM294.046 364L290.136 354.225H263.531L259.621 364H241.771L268.461 304.5H285.461L312.066 364H294.046ZM284.441 340.115L276.876 321.16L269.226 340.115H284.441ZM371.896 362.98V364H353.366L339.511 344.705H333.646V364H316.816V304.5H345.886C361.101 304.5 369.006 314.275 369.006 324.985C369.006 332.295 366.456 338.5 356.426 342.92L371.896 362.98ZM345.886 317.93H333.646V332.21H346.056C350.476 332.21 352.431 328.895 352.431 325.325C352.431 321.585 350.306 317.93 345.886 317.93ZM424.452 364L420.542 354.225H393.937L390.027 364H372.177L398.867 304.5H415.867L442.472 364H424.452ZM414.847 340.115L407.282 321.16L399.632 340.115H414.847ZM463.796 339.605V350.91H477.991C482.241 350.91 484.281 348.615 484.281 345.3C484.281 342.07 482.156 339.605 477.991 339.605H463.796ZM463.796 318.1V327.195H477.226C480.711 327.195 482.581 325.41 482.581 322.775C482.581 320.14 480.711 318.1 477.396 318.1H463.796ZM447.221 304.5H477.651C489.551 304.5 499.241 309.77 499.241 321.16C499.241 325.665 497.881 330.34 492.696 332.72C498.221 335.695 500.941 341.22 500.941 346.575C500.941 359.92 488.786 363.915 477.906 364H447.221V304.5ZM557.658 364H510.058V304.5H556.468V318.61H526.633V327.11H554.768V340.795H526.633V349.805H557.658V364ZM549.073 285.97H532.668L526.123 299.655V300.165H539.808L549.073 286.65V285.97ZM581.447 304.5L606.607 337.055C606.182 329.915 606.182 327.195 606.097 324.9V304.5H623.012V364H608.732L583.912 331.955L584.167 344.96V364H567.167V304.5H581.447ZM680.033 310.365L671.703 320.99C667.623 317.93 662.948 316.91 657.763 316.91C653.683 316.91 649.688 318.185 649.688 321.33C649.688 325.41 653.683 326.005 659.548 326.6C671.363 327.875 683.688 332.635 683.688 346.32C683.688 359.835 670.938 365.615 657.593 365.7C646.883 365.785 639.233 363.915 630.988 355.245L640.253 344.62C646.118 350.315 652.663 351.335 657.678 351.335C663.203 351.335 667.028 349.38 667.028 346.065C667.028 343.09 663.628 341.22 657.083 340.625C644.078 339.435 632.858 336.12 632.858 321.33C632.858 308.75 645.183 303.31 657.763 303.31C666.688 303.31 673.658 305.35 680.033 310.365ZM707.234 344.45H691.339L691.084 304.5H707.574L707.234 344.45ZM699.159 364.425C687.259 364.425 687.259 347.765 699.159 347.765C711.229 347.765 711.314 364.425 699.159 364.425ZM199.064 449H151.464V389.5H197.874V403.61H168.039V412.11H196.174V425.795H168.039V434.805H199.064V449ZM190.479 370.97H174.074L167.529 384.655V385.165H181.214L190.479 371.65V370.97ZM253.539 395.365L245.209 405.99C241.129 402.93 236.454 401.91 231.269 401.91C227.189 401.91 223.194 403.185 223.194 406.33C223.194 410.41 227.189 411.005 233.054 411.6C244.869 412.875 257.194 417.635 257.194 431.32C257.194 444.835 244.444 450.615 231.099 450.7C220.389 450.785 212.739 448.915 204.494 440.245L213.759 429.62C219.624 435.315 226.169 436.335 231.184 436.335C236.709 436.335 240.534 434.38 240.534 431.065C240.534 428.09 237.134 426.22 230.589 425.625C217.584 424.435 206.364 421.12 206.364 406.33C206.364 393.75 218.689 388.31 231.269 388.31C240.194 388.31 247.164 390.35 253.539 395.365ZM347.258 419.25C347.258 439.14 333.743 450.445 314.193 450.445C294.728 450.445 281.128 439.14 281.128 419.25C281.128 399.7 294.728 388.055 314.193 388.055C333.743 388.055 347.258 399.445 347.258 419.25ZM330.428 419.25C330.428 409.05 324.053 402.42 314.193 402.42C304.588 402.42 297.958 409.39 297.958 419.25C297.958 429.195 304.673 436.08 314.193 436.08C324.053 436.08 330.428 429.11 330.428 419.25ZM427.868 397.405L418.093 407.095C413.758 403.015 408.488 401.91 404.493 401.91C394.803 401.91 388.513 407.69 388.513 419.335C388.513 426.985 392.508 436.42 404.493 436.42C407.638 436.42 412.568 435.825 415.968 433.36V425.71H400.923V412.535H429.993V438.97C426.253 446.535 415.883 450.615 404.408 450.615C380.863 450.615 371.938 434.89 371.938 419.335C371.938 403.78 382.138 387.8 404.493 387.8C412.738 387.8 420.048 389.5 427.868 397.405ZM494.581 447.98V449H476.051L462.196 429.705H456.331V449H439.501V389.5H468.571C483.786 389.5 491.691 399.275 491.691 409.985C491.691 417.295 489.141 423.5 479.111 427.92L494.581 447.98ZM468.571 402.93H456.331V417.21H468.741C473.161 417.21 475.116 413.895 475.116 410.325C475.116 406.585 472.991 402.93 468.571 402.93ZM547.137 449L543.227 439.225H516.622L512.712 449H494.862L521.552 389.5H538.552L565.157 449H547.137ZM537.532 425.115L529.967 406.16L522.317 425.115H537.532ZM584.187 389.5L609.347 422.055C608.922 414.915 608.922 412.195 608.837 409.9V389.5H625.752V449H611.472L586.652 416.955L586.907 429.96V449H569.907V389.5H584.187ZM637.807 389.5H663.307C684.302 389.5 694.417 402.42 694.417 418.825C694.417 435.23 684.642 449 663.307 449H637.807V389.5ZM654.467 403.525V434.805H663.307C674.017 434.805 677.757 426.815 677.757 418.655C677.757 410.495 673.592 403.525 663.307 403.525H654.467ZM750.983 434.805V449H703.383V389.5H749.793V403.61H719.958V412.11H748.093V425.795H719.958V434.805H750.983ZM249.835 474.5L225.1 534.255H208.695L183.96 474.5H202.575L209.375 492.35L216.855 514.365L224.42 492.35L231.22 474.5H249.835ZM302.367 519.805V534H254.767V474.5H301.177V488.61H271.342V497.11H299.477V510.795H271.342V519.805H302.367ZM326.157 474.5L351.317 507.055C350.892 499.915 350.892 497.195 350.807 494.9V474.5H367.722V534H353.442L328.622 501.955L328.877 514.96V534H311.877V474.5H326.157ZM423.127 515.215L432.987 526.265C426.272 532.895 418.112 535.53 409.102 535.53C385.727 535.53 376.632 520.825 376.547 504.675C376.462 489.375 386.747 473.14 409.102 473.14C417.687 473.14 425.422 476.115 432.137 482.66L421.767 492.86C417.517 488.78 413.097 487.675 409.102 487.675C397.627 487.675 393.122 497.025 393.207 504.76C393.292 512.495 397.372 521.25 409.102 521.25C413.097 521.25 418.877 519.55 423.127 515.215ZM487.475 519.805V534H439.875V474.5H486.285V488.61H456.45V497.11H484.585V510.795H456.45V519.805H487.475ZM496.984 474.5H522.484C543.479 474.5 553.594 487.42 553.594 503.825C553.594 520.23 543.819 534 522.484 534H496.984V474.5ZM513.644 488.525V519.805H522.484C533.194 519.805 536.934 511.815 536.934 503.655C536.934 495.495 532.769 488.525 522.484 488.525H513.644ZM625.375 504.25C625.375 524.14 611.86 535.445 592.31 535.445C572.845 535.445 559.245 524.14 559.245 504.25C559.245 484.7 572.845 473.055 592.31 473.055C611.86 473.055 625.375 484.445 625.375 504.25ZM608.545 504.25C608.545 494.05 602.17 487.42 592.31 487.42C582.705 487.42 576.075 494.39 576.075 504.25C576.075 514.195 582.79 521.08 592.31 521.08C602.17 521.08 608.545 514.11 608.545 504.25ZM689.193 532.98V534H670.663L656.808 514.705H650.943V534H634.113V474.5H663.183C678.398 474.5 686.303 484.275 686.303 494.985C686.303 502.295 683.753 508.5 673.723 512.92L689.193 532.98ZM663.183 487.93H650.943V502.21H663.353C667.773 502.21 669.728 498.895 669.728 495.325C669.728 491.585 667.603 487.93 663.183 487.93ZM702.734 534.68C691.599 534.68 691.429 519.295 702.734 519.295C714.124 519.295 714.039 534.68 702.734 534.68Z" fill="white"/>
<defs>
<linearGradient id="paint0_linear_29_998" x1="7.65418" y1="649.255" x2="733.381" y2="284.427" gradientUnits="userSpaceOnUse">
<stop stop-color="#D40082"/>
<stop offset="1" stop-color="#BF00B0"/>
</linearGradient>
</defs>
</svg>
