<svg width="872" height="793" viewBox="0 0 872 793" fill="none" xmlns="http://www.w3.org/2000/svg">
<path d="M284.121 198.956C248.726 217.827 208.526 225.412 170.821 239.102C83.3056 270.83 4.38419 346.959 1.05729 440.108C-0.0516737 472.391 7.8035 504.489 20.3718 534.182C65.2849 640.652 166.663 714.191 273.955 756.742C328.664 778.387 386.792 793.65 445.568 791.985C502.032 790.412 557.111 773.3 609.232 751.377C653.037 732.969 695.547 710.768 732.79 681.26C860.598 579.693 907.174 389.14 843.686 238.639C786.575 103.032 527.631 -105.282 402.872 62.8861C365.445 113.3 342.341 167.876 284.028 198.956H284.121Z" fill="url(#paint0_linear_29_998)"/>
<defs>
<linearGradient id="paint0_linear_29_998" x1="7.71107" y1="649.255" x2="733.438" y2="284.427" gradientUnits="userSpaceOnUse">
<stop stop-color="#D40082"/>
<stop offset="1" stop-color="#BF00B0"/>
</linearGradient>
</defs>
</svg>
