<svg width="440" height="140" viewBox="0 0 440 140" fill="none" xmlns="http://www.w3.org/2000/svg">
<path d="M169.582 65.5554V57.9849H148.084V139.597H169.582V96.8145C169.582 84.1384 179.946 79.6357 188.821 79.6357H190.424V58.2367H188.821C182.449 58.2367 175.351 59.1983 169.582 65.5554Z" fill="white"/>
<path d="M220.179 58.0918H198.681V139.597H220.179V58.0918Z" fill="white"/>
<path d="M284.399 113.108C280.637 116.87 275.562 118.778 269.334 118.778C260.39 118.778 249.943 113.543 249.943 98.7986C249.943 86.8628 258.04 78.5215 269.632 78.5215C274.532 78.5215 279.553 80.5057 283.407 83.9552L284.567 84.9931L298.273 70.5846L297.152 69.478C289.009 61.4877 280.69 58.0764 269.334 58.0764C244.494 58.0764 228.444 74.057 228.444 98.7986C228.444 123.54 244.494 139.513 269.334 139.513C281.263 139.513 290.398 135.766 298.953 127.364L300.12 126.219L285.521 111.978L284.399 113.1V113.108Z" fill="white"/>
<path d="M410.115 23.8486H388.761V139.59H410.115V23.8486Z" fill="white"/>
<path d="M440 23.8486H418.647V139.59H440V23.8486Z" fill="white"/>
<path d="M121.854 58.0613V54.3523C121.854 46.3239 127.524 42.7294 133.149 42.7294H134.751V23.7419H133.149C116.847 23.7419 100.348 34.2583 100.348 54.3523V58.0689H93.1514V77.5142H100.348V139.597H121.846V77.3539H139.704V58.0613H121.846H121.854Z" fill="white"/>
<path d="M371.033 69.3789C364.241 61.8923 353.969 57.9468 341.339 57.9468C316.879 57.9468 300.448 74.1792 300.448 98.3485C300.448 122.518 317.062 139.689 342.72 139.689C355.625 139.689 368.217 134.705 375.635 126.975L376.734 125.83L362.761 111.994L361.639 113.161C357.624 117.336 349.031 119.587 342.995 119.587C332.341 119.587 324.824 114.817 322.885 107.01H380.145L380.283 105.553C381.725 90.1216 378.527 77.6134 371.041 69.3713L371.033 69.3789ZM323.641 88.6106H323.481C326.35 81.4521 332.959 77.3921 341.942 77.3921C347.574 77.3921 357.006 78.8955 359.227 88.6106H323.641Z" fill="white"/>
<path d="M63.2812 58.0688V66.8299C57.0386 61.3733 49.033 58.0917 39.9667 58.0917C18.4837 58.0841 0 74.3852 0 98.9971C0 123.609 16.6903 139.735 38.1809 139.735C47.7586 139.735 56.5044 136.087 63.2812 130.073V139.635H84.9321V58.0688H63.2812ZM40.7909 121.075C29.4351 121.075 20.2237 111.421 20.2237 99.5161C20.2237 87.6108 29.4275 77.9568 40.7909 77.9568C52.1544 77.9568 61.3581 87.6108 61.3581 99.5161C61.3581 111.421 52.1544 121.075 40.7909 121.075Z" fill="white"/>
<path d="M376.322 22.2461C375.238 22.2461 374.155 21.834 373.33 21.0174C365.157 12.9127 353.213 8.25739 340.553 8.25739C327.892 8.25739 315.094 12.9661 307.805 20.8495C306.249 22.5438 303.585 22.6659 301.86 21.1395C300.136 19.6056 300.006 16.9956 301.57 15.3014C310.431 5.7237 324.999 0 340.553 0C356.106 0 369.576 5.54054 379.314 15.2098C380.947 16.8353 380.931 19.4453 379.283 21.0556C378.466 21.8493 377.398 22.2461 376.322 22.2461Z" fill="#F58220"/>
<path d="M367.401 35.2046C366.523 35.2046 365.638 34.9375 364.874 34.3804C358.166 29.4427 350.603 24.879 340.705 24.879C330.204 24.879 322.779 29.3741 316.315 34.2354C314.475 35.6243 311.827 35.2809 310.415 33.4646C309.004 31.6559 309.355 29.0612 311.194 27.6722C318.467 22.2003 327.663 16.614 340.705 16.614C353.748 16.614 362.432 22.2538 369.927 27.7714C371.789 29.1375 372.163 31.7322 370.766 33.5562C369.942 34.6399 368.675 35.2122 367.393 35.2122L367.401 35.2046Z" fill="#F58220"/>
<path d="M357.579 46.9572C356.8 46.9572 356.022 46.7436 355.32 46.3086C350.214 43.1033 346.681 41.1649 340.713 41.1649C334.241 41.1649 330.41 43.2559 325.709 46.2094C323.748 47.438 321.146 46.8733 319.894 44.9578C318.642 43.0346 319.215 40.478 321.168 39.2493C326.701 35.777 331.99 32.9075 340.705 32.9075C349.421 32.9075 355.03 36.3341 359.845 39.3485C361.807 40.5772 362.379 43.1338 361.127 45.0493C360.326 46.2857 358.968 46.9572 357.571 46.9572H357.579Z" fill="#F58220"/>
</svg>
