<svg width="871" height="792" viewBox="0 0 871 792" fill="none" xmlns="http://www.w3.org/2000/svg">
<path d="M283.167 198.808C247.773 217.678 207.573 225.263 169.868 238.954C82.3522 270.682 3.43082 346.811 0.103923 439.96C-1.00504 472.243 6.85013 504.341 19.4184 534.034C64.3315 640.504 165.709 714.042 273.002 756.593C327.711 778.239 385.839 793.501 444.614 791.836C501.079 790.264 556.158 773.151 608.279 751.228C652.083 732.82 694.594 710.62 731.836 681.112C859.645 579.545 906.221 388.991 842.733 238.491C785.621 102.883 526.678 -105.431 401.919 62.7377C364.491 113.151 341.388 167.727 283.075 198.808H283.167Z" fill="url(#paint0_linear_31_3)"/>
<path d="M350.435 290.955V278.257H314.377V415.143H350.435V343.385C350.435 322.123 367.818 314.571 382.704 314.571H385.393V278.679H382.704C372.016 278.679 360.112 280.292 350.435 290.955Z" fill="white"/>
<path d="M435.301 278.436H399.242V415.143H435.301V278.436Z" fill="white"/>
<path d="M543.015 370.713C536.705 377.024 528.192 380.224 517.747 380.224C502.745 380.224 485.222 371.443 485.222 346.713C485.222 326.693 498.803 312.702 518.247 312.702C526.464 312.702 534.887 316.03 541.351 321.816L543.297 323.557L566.286 299.39L564.404 297.534C550.746 284.132 536.794 278.41 517.747 278.41C476.082 278.41 449.163 305.214 449.163 346.713C449.163 388.211 476.082 415.002 517.747 415.002C537.754 415.002 553.076 408.717 567.425 394.624L569.384 392.704L544.897 368.819L543.015 370.7V370.713Z" fill="white"/>
<path d="M753.874 221.001H718.059V415.13H753.874V221.001Z" fill="white"/>
<path d="M804 221.001H768.185V415.13H804V221.001Z" fill="white"/>
<path d="M270.382 278.385V272.164C270.382 258.698 279.893 252.669 289.326 252.669H292.014V220.822H289.326C261.985 220.822 234.311 238.461 234.311 272.164V278.398H222.24V311.013H234.311V415.143H270.369V310.744H300.322V278.385H270.369H270.382Z" fill="white"/>
<path d="M688.324 297.368C676.932 284.811 659.703 278.193 638.518 278.193C597.493 278.193 569.934 305.419 569.934 345.958C569.934 386.496 597.8 415.297 640.835 415.297C662.48 415.297 683.601 406.938 696.043 393.971L697.886 392.051L674.448 368.844L672.567 370.803C665.834 377.805 651.421 381.581 641.296 381.581C623.427 381.581 610.818 373.581 607.567 360.486H703.607L703.838 358.041C706.257 332.159 700.894 311.179 688.337 297.355L688.324 297.368ZM608.834 329.624H608.565C613.378 317.618 624.463 310.808 639.529 310.808C648.976 310.808 664.797 313.33 668.522 329.624H608.834Z" fill="white"/>
<path d="M172.14 278.397V293.092C161.669 283.94 148.242 278.436 133.035 278.436C97.0023 278.423 66 305.764 66 347.045C66 388.326 93.9942 415.373 130.04 415.373C146.104 415.373 160.773 409.255 172.14 399.168V415.207H208.454V278.397H172.14ZM134.417 384.077C115.371 384.077 99.9207 367.884 99.9207 347.916C99.9207 327.947 115.358 311.755 134.417 311.755C153.477 311.755 168.914 327.947 168.914 347.916C168.914 367.884 153.477 384.077 134.417 384.077Z" fill="white"/>
<path d="M449.727 615.992C430.974 608.363 409.303 618.078 401.316 637.701C393.329 657.324 402.071 679.404 420.824 687.033C439.576 694.662 461.247 684.947 469.234 665.337C477.222 645.714 468.479 623.633 449.727 615.992Z" fill="#00B9B5"/>
<path d="M532.66 557.034C511.603 557.034 498.931 561.335 489.228 567.376C490.24 560.695 492.326 544.042 493.324 536.925H593.883L601.64 483.087H439.64C438.552 494.082 436.978 507.356 435.147 521.436C421.464 497.141 392.522 483.087 354.121 483.087C294.946 483.087 263.457 516.534 260.564 563.639H323.874C325.922 547.024 331.363 533.366 350.934 533.366C368.24 533.366 374.986 542.39 374.986 555.933C374.986 570.577 367.587 575.799 335.855 596.126C277.525 633.004 260.923 668.895 260.923 713.965V717.447H407.895C406.59 717.012 405.284 716.538 403.991 716.013C368.509 701.575 351.254 665.043 368.266 623.237C384.765 582.686 426.213 568.247 461.695 582.686C476.671 588.779 487.68 599.556 494.336 612.753L500.211 598.315L535.962 612.856L493.888 716.244C499.84 717.025 506.099 717.434 512.666 717.434C575.643 717.434 610.037 686.125 610.037 632.735C610.037 583.428 575.835 557.008 532.647 557.008L532.66 557.034Z" fill="#00B9B5"/>
<path d="M681.245 701.754H659.997C658.742 701.754 658.192 701.92 656.938 702.419L617.871 717.447V697.632C625.884 695.456 632.182 694.176 639.926 692.282C632.63 690.669 627.049 689.325 617.871 686.995V668.844L657.386 684.153C658.013 684.371 658.922 684.601 660.445 684.601H681.233V701.754H681.245Z" fill="white"/>
<path d="M657.757 630.277V650.156H664.234V627.768L681.245 629.778V666.745H617.871V629.278H634.972V650.156H640.643V630.277H657.744H657.757Z" fill="white"/>
<path d="M672.247 607.505L681.245 608.9V625.605L617.871 612.126V589.585L681.245 574.89V593.156L672.247 594.654V607.518V607.505ZM655.146 597.815C648.31 598.814 641.104 599.927 635.164 600.99V601.438C641.104 602.218 649.385 603.55 655.146 604.446V597.815Z" fill="white"/>
<path d="M658.832 555.126H681.245V571.767H617.871V544.771C617.871 534.134 625.974 529.129 635.868 529.129C643.792 529.129 649.014 531.804 651.433 535.926C653.776 532.47 658.09 530.243 667.549 530.243H671.325C673.757 530.243 678.071 530.127 681.22 529.628V546.051C678.788 546.665 674.205 546.883 668.522 546.883H666.269C660.15 546.883 658.794 547.83 658.794 551.785V555.126H658.832ZM644.342 555.126V550.224C644.342 548.278 643.177 546.051 639.12 546.051C635.612 546.051 633.808 547.715 633.808 550.339V555.126H644.342Z" fill="white"/>
<path d="M661.635 508.815C664.119 508.431 666.947 507.42 666.947 504.412C666.947 502.133 665.578 500.904 663.517 500.904C661.456 500.904 659.83 501.288 658.038 507.701C653.763 523.074 645.11 524.572 637.404 524.572C626.268 524.572 617.884 518.108 617.884 505.026C617.884 493.058 624.476 485.147 636.547 484.533V500.623C633.974 500.956 632.003 501.852 632.003 504.463C632.003 506.357 633.116 507.305 634.832 507.305C636.892 507.305 637.916 505.641 639.12 501.288C642.972 486.927 650.512 483.086 660.01 483.086C673.117 483.086 681.245 490.997 681.245 504.079C681.245 518.326 672.682 524.79 661.635 525.955V508.802V508.815Z" fill="white"/>
<path d="M697.194 218.313C695.377 218.313 693.559 217.622 692.177 216.252C678.468 202.658 658.435 194.85 637.2 194.85C615.964 194.85 594.498 202.748 582.274 215.97C579.662 218.812 575.195 219.017 572.302 216.457C569.409 213.884 569.192 209.506 571.816 206.665C586.677 190.6 611.113 181 637.2 181C663.287 181 685.879 190.293 702.212 206.511C704.951 209.237 704.926 213.615 702.161 216.316C700.791 217.647 698.999 218.313 697.194 218.313Z" fill="#F58220"/>
<path d="M682.231 240.048C680.759 240.048 679.274 239.6 677.994 238.666C666.743 230.384 654.058 222.729 637.456 222.729C619.842 222.729 607.388 230.269 596.546 238.422C593.461 240.752 589.019 240.176 586.651 237.129C584.283 234.096 584.872 229.744 587.957 227.414C600.156 218.236 615.58 208.866 637.456 208.866C659.331 208.866 673.898 218.326 686.468 227.58C689.591 229.872 690.218 234.224 687.876 237.283C686.493 239.101 684.369 240.061 682.218 240.061L682.231 240.048Z" fill="#F58220"/>
<path d="M665.757 259.76C664.451 259.76 663.146 259.402 661.968 258.672C653.405 253.296 647.478 250.045 637.468 250.045C626.614 250.045 620.188 253.552 612.303 258.506C609.013 260.567 604.648 259.62 602.549 256.407C600.45 253.181 601.41 248.893 604.687 246.832C613.967 241.008 622.838 236.195 637.456 236.195C652.073 236.195 661.482 241.942 669.559 246.999C672.848 249.059 673.808 253.347 671.709 256.56C670.365 258.634 668.087 259.76 665.744 259.76H665.757Z" fill="#F58220"/>
<defs>
<linearGradient id="paint0_linear_31_3" x1="6.7577" y1="649.106" x2="732.485" y2="284.279" gradientUnits="userSpaceOnUse">
<stop stop-color="#D40082"/>
<stop offset="1" stop-color="#BF00B0"/>
</linearGradient>
</defs>
</svg>
